<?xml version="1.0" standalone="no"?>
<!DOCTYPE svg PUBLIC "-//W3C//DTD SVG 20010904//EN"
 "http://www.w3.org/TR/2001/REC-SVG-20010904/DTD/svg10.dtd">
<svg version="1.0" xmlns="http://www.w3.org/2000/svg"
 width="186.000000pt" height="189.000000pt" viewBox="0 0 186.000000 189.000000"
 preserveAspectRatio="xMidYMid meet">

<g transform="translate(0.000000,189.000000) scale(0.100000,-0.100000)"
fill="#000000" stroke="none">
<path d="M1330 1645 c-54 -17 -118 -69 -145 -118 l-19 -35 -185 5 -186 5 -43
41 -42 41 -48 -46 c-45 -45 -50 -47 -132 -58 -104 -13 -184 -35 -204 -56 -14
-14 -16 -75 -16 -505 l0 -490 23 -23 c65 -65 253 -99 537 -100 281 0 473 36
537 100 l23 23 0 355 0 355 56 16 c101 29 184 139 184 245 0 104 -82 215 -181
244 -63 19 -99 19 -159 1z m151 -40 c113 -40 172 -160 134 -274 -18 -56 -86
-126 -132 -136 -15 -4 -34 -8 -40 -11 -7 -2 -13 5 -13 16 0 12 9 20 29 25 42
9 108 70 121 111 29 87 -11 185 -91 227 -53 28 -138 19 -186 -19 -48 -38 -73
-87 -73 -142 0 -36 -3 -43 -17 -40 -25 4 -28 48 -8 108 18 55 87 126 132 136
15 3 33 7 38 9 24 8 66 4 106 -10z m-671 -171 l95 -96 -179 6 c-98 3 -181 8
-184 11 -6 6 157 175 168 175 3 0 48 -43 100 -96z m332 21 c9 -4 12 -20 10
-54 l-4 -49 -45 -6 c-25 -3 -69 -6 -97 -6 -50 0 -54 2 -111 60 l-59 60 146 0
c80 0 152 -2 160 -5z m-612 -50 c-36 -36 -48 -43 -69 -39 -139 31 -137 42 13
69 104 19 104 19 56 -30z m-121 -65 l43 -11 -23 -25 -23 -24 32 -33 c38 -39
38 -41 10 -69 l-21 -21 22 -18 c12 -10 48 -26 79 -36 44 -13 71 -30 119 -77
l63 -60 48 47 c33 32 56 47 74 47 l26 0 -34 -131 c-20 -72 -33 -137 -31 -143
7 -17 405 -122 416 -110 12 12 100 340 103 384 3 29 -1 34 -32 46 -19 7 -29
13 -22 13 6 1 21 10 32 21 16 16 28 19 60 14 l40 -7 0 -257 c0 -205 -3 -260
-14 -269 -28 -23 -134 -52 -251 -67 -240 -32 -642 -2 -740 55 l-30 17 -3 368
c-1 202 1 365 5 363 5 -3 28 -10 52 -17z m374 -37 c115 -4 170 -10 178 -19 17
-20 -3 -25 -133 -30 -68 -2 -165 -11 -217 -20 l-94 -16 -30 31 c-31 30 -31 30
-11 52 17 19 26 21 79 15 33 -4 135 -9 228 -13z m505 -23 c22 -22 54 -43 71
-46 24 -5 31 -12 31 -30 0 -29 -19 -31 -75 -5 -43 19 -105 82 -105 106 0 27
37 15 78 -25z m-94 -11 c14 -23 25 -43 23 -45 -1 -2 -39 3 -82 11 -44 8 -92
14 -106 15 -20 0 -25 5 -25 23 1 32 13 37 92 37 l70 0 28 -41z m14 -190 c26
-7 51 -15 55 -19 8 -7 -69 -317 -83 -333 -7 -8 -317 70 -333 83 -10 9 51 243
67 252 6 4 40 8 76 9 36 0 85 4 110 8 25 5 49 9 53 10 5 0 29 -4 55 -10z
m-476 -31 l-22 -22 -22 22 -22 22 44 0 44 0 -22 -22z m-324 -488 c101 -39 232
-54 462 -53 230 0 362 15 462 53 29 11 54 20 56 20 1 0 2 -31 2 -68 0 -83 -10
-95 -102 -123 -195 -62 -582 -65 -808 -8 -112 29 -124 41 -128 128 -2 39 -2
71 0 71 2 0 27 -9 56 -20z"/>
</g>
</svg>
